<svg xmlns="http://www.w3.org/2000/svg" width="159" height="159" viewBox="0 0 159 159"><defs><style>.a{fill:#479cff;}.b{fill:#fff;}</style></defs><g transform="translate(-1367 -283)"><circle class="a" cx="79.5" cy="79.5" r="79.5" transform="translate(1367 283)"/><g transform="translate(1402.992 361.366) rotate(-45)"><path class="b" d="M24.685,11.024a3.44,3.44,0,1,0,2.432,1.006A3.44,3.44,0,0,0,24.685,11.024Z" transform="translate(15.822 7.308)"/><path class="b" d="M59.658,4.577a.036.036,0,0,1,0-.011,2.628,2.628,0,0,0-1.95-1.972c-3.84-.937-9.883.062-16.577,2.742A53.326,53.326,0,0,0,23.785,16.319a41.331,41.331,0,0,0-3.809,4.361,16.882,16.882,0,0,0-7.548,1.213C4.986,25.169,2.861,33.549,2.3,36.99a3.222,3.222,0,0,0,3.5,3.737h.016l8.289-.905c.011.106.022.2.031.291a4.428,4.428,0,0,0,1.276,2.671l4.045,4.049a4.418,4.418,0,0,0,2.669,1.278l.277.029-.9,8.279v.016a3.2,3.2,0,0,0,3.708,3.508c3.461-.557,11.837-2.656,15.1-10.138a17.036,17.036,0,0,0,1.217-7.519A40.568,40.568,0,0,0,45.9,38.478,52.925,52.925,0,0,0,56.9,21.27c2.667-6.619,3.67-12.706,2.757-16.695Zm-13.8,22.538A7.513,7.513,0,1,1,48.1,21.762a7.574,7.574,0,0,1-2.241,5.353Z" transform="translate(0 0)"/><path class="b" d="M18.059,30.127a2.062,2.062,0,0,0-1.417.345c-.823.563-1.651,1.12-2.485,1.662a1.923,1.923,0,0,1-2.707-2.577l1.565-2.707a2.062,2.062,0,0,0-1.954-3.21,7.9,7.9,0,0,0-4.592,2.249C6,26.362,4.563,27.8,3.791,33.269a46.132,46.132,0,0,0-.416,4.738,2.062,2.062,0,0,0,2.062,2.115h.051a46.381,46.381,0,0,0,4.742-.412c5.473-.774,6.908-2.209,7.381-2.682a7.8,7.8,0,0,0,2.242-4.606,2.062,2.062,0,0,0-1.794-2.3Z" transform="translate(0.936 17.804)"/></g></g></svg>