<svg xmlns="http://www.w3.org/2000/svg" width="159" height="159" viewBox="0 0 159 159"><defs><style>.a{fill:#0b0c10;}.b{fill:#66fcf1;}</style></defs><g transform="translate(-881 -283)"><circle class="a" cx="79.5" cy="79.5" r="79.5" transform="translate(881 283)"/><g transform="matrix(0.719, -0.695, 0.695, 0.719, 917.128, 365.752)"><path class="b" d="M8.2,33.242,24.234,17.207l2.837,2.836L11.035,36.077Z" transform="translate(4.655 11.7)"/><path class="b" d="M32.326,58.39a2,2,0,0,1-1.985-1.725l-2-14.035,4.01-.561,1.5,10.567,6.5-5.233V32.325a2.005,2.005,0,0,1,.581-1.424l8.161-8.161A17.924,17.924,0,0,0,54.381,9.99V6.26h-3.73A17.924,17.924,0,0,0,37.9,11.553l-8.161,8.161a2,2,0,0,1-1.422.581H13.239L8.006,26.83l10.567,1.5-.561,4.01-14.035-2a2.009,2.009,0,0,1-1.283-3.249l8.02-10.025a2,2,0,0,1,1.563-.781H27.495l7.558-7.578a21.9,21.9,0,0,1,15.6-6.457h3.73a4.01,4.01,0,0,1,4.01,4.01V9.99a21.9,21.9,0,0,1-6.457,15.6l-7.578,7.558V48.365A2.005,2.005,0,0,1,43.6,49.93L33.57,57.95A2.005,2.005,0,0,1,32.326,58.39Z"/></g></g></svg>