<svg xmlns="http://www.w3.org/2000/svg" width="414.512" height="283.823" viewBox="0 0 414.512 283.823"><defs><style>.a,.b{fill:#479cff;}.a{opacity:0.28;}.b{opacity:0.16;}</style></defs><g transform="translate(-753 -2665.42)"><path class="a" d="M2473,1996s101.911-108.236,177.366-124.835,65.2,70.345,124.456,58.44,112.551-106.058,112.551-106.058l-.59-41.9s-1.531-12.552-15.512-13.471c-13.879,0-214.229.229-214.229.229.033-.068-188.254,7.2-184.042,227.595" transform="translate(-1719.93 897.243)"/><path class="b" d="M2473,2024.982s101.911-122.005,177.366-140.715,65.2,79.293,124.456,65.874,112.551-119.55,112.551-119.55l-.59-47.23s-1.531-14.149-15.512-15.185c-13.879,0-214.229.258-214.229.258.033-.077-188.254,8.115-184.042,256.548" transform="translate(-1719.861 924.261)"/></g></svg>