<svg xmlns="http://www.w3.org/2000/svg" width="159" height="159" viewBox="0 0 159 159"><defs><style>.a{fill:#479cff;}.b{fill:#fff;}</style></defs><g transform="translate(-405 -272)"><circle class="a" cx="79.5" cy="79.5" r="79.5" transform="translate(405 272)"/><path class="b" d="M55.925,3.107a2.922,2.922,0,0,0-3.1-.665L4.132,20.871h-.01a2.922,2.922,0,0,0,.121,5.5l.05.016L21,33.518a1.947,1.947,0,0,0,1.892-.436L49.718,8.091a.86.86,0,0,1,1.217,1.217L25.942,36.117a1.947,1.947,0,0,0-.436,1.892l7.139,16.722c.007.024.014.047.023.069a2.863,2.863,0,0,0,2.567,1.979h.121a3,3,0,0,0,2.8-1.882L56.581,6.22a2.922,2.922,0,0,0-.656-3.112Z" transform="translate(442.816 351.555) rotate(-45)"/></g></svg>