<svg xmlns="http://www.w3.org/2000/svg" xmlns:xlink="http://www.w3.org/1999/xlink" width="1420" height="1279" viewBox="0 0 1420 1279"><defs><style>.a{fill:rgba(255,138,138,0.32);}.b{fill:#fff;stroke:#ee7070;stroke-width:20px;}.c,.f{fill:#5a5a5a;font-family:Perpetua-Bold, Perpetua;font-weight:700;}.c{font-size:72px;}.d,.g{fill:#585858;}.d,.o{font-size:13px;}.d,.e,.g,.j,.k,.m,.n,.p,.q{font-family:HarlowSolid, Harlow Solid;}.e,.h,.i,.j,.k,.m,.o,.p{fill:#5d5d5d;}.e{font-size:20px;}.f{font-size:103px;}.g,.m{font-size:15px;}.h{font-size:10px;}.h,.i,.o{font-family:Montserrat-Regular, Montserrat;}.i,.k{font-size:14px;}.j{font-size:29px;}.l,.s{fill:none;}.l{stroke:rgba(71,66,50,0.34);}.n,.q{fill:#fc4a4a;}.n{font-size:17px;}.p{font-size:18px;}.q{font-size:24px;}.r{stroke:none;}.t{filter:url(#c);}.u{filter:url(#a);}</style><filter id="a" x="283" y="291" width="922" height="697" filterUnits="userSpaceOnUse"><feOffset dy="3" input="SourceAlpha"/><feGaussianBlur stdDeviation="8" result="b"/><feFlood flood-opacity="0.271"/><feComposite operator="in" in2="b"/><feComposite in="SourceGraphic"/></filter><filter id="c" x="62" y="348" width="339" height="584" filterUnits="userSpaceOnUse"><feOffset dy="3" input="SourceAlpha"/><feGaussianBlur stdDeviation="8" result="d"/><feFlood flood-opacity="0.271"/><feComposite operator="in" in2="d"/><feComposite in="SourceGraphic"/></filter></defs><g transform="translate(-888 104)"><path class="a" d="M647.123,101.319c28.944-46.64,96.809-46.64,125.753,0l65.975,106.313a74,74,0,0,0,86.731,31.03l126.077-42.933c54.02-18.4,107.652,28.693,96.4,84.639l-20.243,100.664a74,74,0,0,0,49.657,84.96l107.66,35.02c56.875,18.5,69.445,93.33,21.737,129.4l-81.845,61.878a74,74,0,0,0-17.643,99.008l53.211,82.879c31.741,49.439-4.019,114.373-62.769,113.978l-125.335-.844a74,74,0,0,0-73.27,60.572l-20.531,111.277c-10.073,54.6-74.449,79.069-118.247,44.951l-104.969-81.769a74,74,0,0,0-90.951,0l-104.969,81.769c-43.8,34.118-108.174,9.646-118.247-44.951l-20.531-111.278a74,74,0,0,0-73.27-60.572l-125.334.844c-58.75.4-94.51-64.539-62.769-113.978L212.616,791.3a74,74,0,0,0-17.643-99.008l-81.845-61.878c-47.708-36.069-35.137-110.9,21.737-129.4l107.66-35.02a74,74,0,0,0,49.657-84.96L271.939,280.368c-11.251-55.946,42.382-103.034,96.4-84.639l126.077,42.933a74,74,0,0,0,86.731-31.03Z" transform="translate(888 -104)"/><g class="u" transform="matrix(1, 0, 0, 1, 888, -104)"><g class="b" transform="translate(307 312)"><rect class="r" width="874" height="649" rx="19"/><rect class="s" x="10" y="10" width="854" height="629" rx="9"/></g></g><g class="t" transform="matrix(1, 0, 0, 1, 888, -104)"><g class="b" transform="translate(86 369)"><rect class="r" width="291" height="536" rx="40"/><rect class="s" x="10" y="10" width="271" height="516" rx="30"/></g></g><text class="c" transform="translate(1007 363)"><tspan x="0" y="0">invoice</tspan></text><text class="d" transform="translate(1192 389)"><tspan x="0" y="0"># 36753</tspan></text><text class="e" transform="translate(1007 443)"><tspan x="0" y="0">bill to:</tspan></text><text class="e" transform="translate(1177 443)"><tspan x="0" y="0">due on:</tspan></text><text class="f" transform="translate(1328 315)"><tspan x="0" y="0">invoice</tspan></text><text class="g" transform="translate(1551 345)"><tspan x="0" y="0"># 36753</tspan></text><g transform="translate(1007.318 464.711)"><text class="h" transform="translate(-0.318 10.289)"><tspan x="0" y="0">John Smith Jr.</tspan></text><text class="h" transform="translate(-0.318 25.289)"><tspan x="0" y="0">123 9th Ave</tspan></text><text class="h" transform="translate(-0.318 41.289)"><tspan x="0" y="0">New York, NY</tspan></text></g><text class="i" transform="translate(1329 436)"><tspan x="0" y="0">John Smith Jr.</tspan></text><text class="i" transform="translate(1329 452)"><tspan x="0" y="0">123 9th Ave</tspan></text><text class="i" transform="translate(1329 468)"><tspan x="0" y="0">New York, NY</tspan></text><text class="j" transform="translate(1328 411)"><tspan x="0" y="0">bill to:</tspan></text><text class="k" transform="translate(1006 566)"><tspan x="0" y="0">Description</tspan></text><line class="l" x2="231" y2="3" transform="translate(1005 582)"/><text class="m" transform="translate(1132 567)"><tspan x="0" y="0">Qty</tspan></text><text class="m" transform="translate(1199 567)"><tspan x="0" y="0">Price</tspan></text><g transform="translate(1165.59 464.711)"><text class="h" transform="translate(0.41 10.289)"><tspan x="0" y="0">Aug 5th, 2021</tspan></text></g><g transform="translate(1010.095 592.438)"><text class="h" transform="translate(-0.095 9.562)"><tspan x="0" y="0">Web/Mobile Design</tspan></text></g><g transform="translate(1141.525 592.438)"><text class="h" transform="translate(0.475 9.562)"><tspan x="0" y="0">1</tspan><tspan x="0" y="13"></tspan></text></g><g transform="translate(1197.059 592.438)"><text class="h" transform="translate(-0.059 9.562)"><tspan x="0" y="0">1599.99</tspan></text></g><line class="l" x2="231" transform="translate(1005 612)"/><line class="l" x2="231" transform="translate(1005 637)"/><line class="l" x2="231" transform="translate(1005 661)"/><line class="l" x2="82" transform="translate(1154 685)"/><text class="k" transform="translate(1087 677)"><tspan x="0" y="0">Subtotal</tspan></text><line class="l" x2="82" transform="translate(1154 709)"/><text class="k" transform="translate(1104 703)"><tspan x="0" y="0">Taxes</tspan></text><text class="n" transform="translate(1097 731)"><tspan x="0" y="0">Total</tspan></text><line class="l" x2="82" transform="translate(1154 733)"/><text class="e" transform="translate(1331 517)"><tspan x="0" y="0">Description</tspan></text><line class="l" x2="599" transform="translate(1328 538)"/><text class="e" transform="translate(1580 517)"><tspan x="0" y="0">Qty</tspan></text><text class="m" transform="translate(1775 518)"><tspan x="0" y="0">Price</tspan></text><g transform="translate(1328.489 558.193)"><text class="i" transform="translate(-0.489 13.807)"><tspan x="0" y="0">Web/Mobile Design</tspan></text></g><g transform="translate(1592.275 558.193)"><text class="o" transform="translate(-0.275 12.807)"><tspan x="0" y="0">1</tspan><tspan x="0" y="16"></tspan></text></g><g transform="translate(1780.164 562.82)"><text class="h" transform="translate(-0.164 10.18)"><tspan x="0" y="0">1599.99</tspan></text></g><line class="l" x2="604" transform="translate(1328 585)"/><line class="l" x2="604" transform="translate(1329 628)"/><line class="l" x2="604" transform="translate(1328 672)"/><text class="p" transform="translate(1682 714)"><tspan x="0" y="0">Subtotal</tspan></text><text class="p" transform="translate(1703 757)"><tspan x="0" y="0">Taxes</tspan></text><text class="q" transform="translate(1690 804)"><tspan x="0" y="0">Total</tspan></text><line class="l" x2="157" transform="translate(1775 715)"/><line class="l" x2="157" transform="translate(1775 759)"/><line class="l" x2="157" transform="translate(1775 803)"/></g></svg>