<svg xmlns="http://www.w3.org/2000/svg" xmlns:xlink="http://www.w3.org/1999/xlink" width="1094.5" height="697" viewBox="0 0 1094.5 697"><defs><style>.a,.b,.c,.j,.k,.m,.n,.o,.p,.r,.s,.t,.v{fill:#5d5d5d;}.a{font-size:20px;}.a,.c,.d,.g,.i,.k,.m,.p,.q,.r,.s,.t,.u{font-family:HarlowSolid, Harlow Solid;}.b{font-size:10px;}.b,.j,.n,.o,.v{font-family:Montserrat-Regular, Montserrat;}.c,.j{font-size:14px;}.d,.q,.u{fill:#fc4a4a;}.d{font-size:17px;}.e{fill:#eee;stroke:#42a8a2;stroke-width:20px;}.f,.h{fill:#5a5a5a;font-family:Perpetua-Bold, Perpetua;font-weight:700;}.f{font-size:58px;}.g,.i{fill:#585858;}.g,.o{font-size:13px;}.h{font-size:103px;}.i,.m{font-size:15px;}.k{font-size:29px;}.l,.x{fill:none;}.l{stroke:rgba(71,66,50,0.34);}.n{font-size:9px;}.p{font-size:18px;}.q{font-size:24px;}.r{font-size:21px;}.s,.u{font-size:16px;}.t{font-size:12px;}.v{font-size:11px;}.w{stroke:none;}.y{filter:url(#c);}.z{filter:url(#a);}</style><filter id="a" x="228.5" y="0" width="866" height="697" filterUnits="userSpaceOnUse"><feOffset dy="3" input="SourceAlpha"/><feGaussianBlur stdDeviation="8" result="b"/><feFlood flood-opacity="0.271"/><feComposite operator="in" in2="b"/><feComposite in="SourceGraphic"/></filter><filter id="c" x="0" y="46.5" width="354" height="599" filterUnits="userSpaceOnUse"><feOffset input="SourceAlpha"/><feGaussianBlur stdDeviation="10.5" result="d"/><feFlood flood-opacity="0.6"/><feComposite operator="in" in2="d"/><feComposite in="SourceGraphic"/></filter></defs><g transform="translate(-995.5 -187)"><text class="a" transform="translate(1060 443)"><tspan x="0" y="0">bill to:</tspan></text><g transform="translate(1060 465)"><text class="b" transform="translate(0 10)"><tspan x="0" y="0">John Smith Jr.</tspan></text><text class="b" transform="translate(0 25)"><tspan x="0" y="0">123 9th Ave</tspan></text><text class="b" transform="translate(0 41)"><tspan x="0" y="0">New York, NY</tspan></text></g><text class="c" transform="translate(1059 566)"><tspan x="0" y="0">Description</tspan></text><g transform="translate(1063 592)"><text class="b" transform="translate(0 10)"><tspan x="0" y="0">Web/Mobile Design</tspan></text></g><text class="c" transform="translate(1140 677)"><tspan x="0" y="0">Subtotal</tspan></text><text class="c" transform="translate(1157 703)"><tspan x="0" y="0">Taxes</tspan></text><text class="d" transform="translate(1150 731)"><tspan x="0" y="0">Total</tspan></text><g class="z" transform="matrix(1, 0, 0, 1, 995.5, 187)"><g class="e" transform="translate(252.5 21)"><rect class="w" width="818" height="649" rx="19"/><rect class="x" x="10" y="10" width="798" height="629" rx="9"/></g></g><g class="y" transform="matrix(1, 0, 0, 1, 995.5, 187)"><g class="e" transform="translate(31.5 78)"><rect class="w" width="291" height="536" rx="40"/><rect class="x" x="10" y="10" width="271" height="516" rx="30"/></g></g><text class="f" transform="translate(1085 365)"><tspan x="0" y="0">invoice</tspan></text><text class="g" transform="translate(1233 385)"><tspan x="0" y="0"># 36753</tspan></text><text class="a" transform="translate(1219 414)"><tspan x="0" y="0">due on:</tspan></text><text class="h" transform="translate(1355 315)"><tspan x="0" y="0">invoice</tspan></text><text class="i" transform="translate(1573 345)"><tspan x="0" y="0"># 36753</tspan></text><text class="j" transform="translate(1362 436)"><tspan x="0" y="0">John Smith Jr.</tspan></text><text class="j" transform="translate(1362 452)"><tspan x="0" y="0">123 9th Ave</tspan></text><text class="j" transform="translate(1362 468)"><tspan x="0" y="0">New York, NY</tspan></text><text class="k" transform="translate(1361 411)"><tspan x="0" y="0">bill to:</tspan></text><line class="l" x2="231" transform="translate(1058 584)"/><text class="m" transform="translate(1186 514)"><tspan x="0" y="0">Qty</tspan></text><text class="m" transform="translate(1240 514)"><tspan x="0" y="0">Price</tspan></text><g transform="translate(1215.239 426)"><text class="n" transform="translate(-0.239 10)"><tspan x="0" y="0">Aug 5th, 2021</tspan></text></g><g transform="translate(1199 538)"><text class="b" transform="translate(0 10)"><tspan x="0" y="0">1</tspan><tspan x="0" y="13"></tspan></text></g><g transform="translate(1242.498 539)"><text class="b" transform="translate(-0.498 10)"><tspan x="0" y="0">1599.99</tspan></text></g><line class="l" x2="231" transform="translate(1058 610)"/><line class="l" x2="231" transform="translate(1058 638)"/><line class="l" x2="231" transform="translate(1058 666)"/><path class="l" d="M0,1H92" transform="translate(1197 693)"/><line class="l" x2="92" transform="translate(1197 720)"/><line class="l" x2="92" transform="translate(1197 746)"/><text class="a" transform="translate(1364 517)"><tspan x="0" y="0">Description</tspan></text><line class="l" x2="599" transform="translate(1325 538)"/><text class="a" transform="translate(1601 517)"><tspan x="0" y="0">Qty</tspan></text><text class="m" transform="translate(1785 518)"><tspan x="0" y="0">Price</tspan></text><g transform="translate(1359.827 558)"><text class="j" transform="translate(0.173 14)"><tspan x="0" y="0">Web/Mobile Design</tspan></text></g><g transform="translate(1612.851 558)"><text class="o" transform="translate(0.149 13)"><tspan x="0" y="0">1</tspan><tspan x="0" y="16"></tspan></text></g><g transform="translate(1790 560)"><text class="o" transform="translate(0 13)"><tspan x="0" y="0">1599.99</tspan></text></g><line class="l" x2="604" transform="translate(1325 585)"/><line class="l" x2="604" transform="translate(1326 628)"/><line class="l" x2="604" transform="translate(1325 672)"/><text class="p" transform="translate(1697 714)"><tspan x="0" y="0">Subtotal</tspan></text><text class="p" transform="translate(1717 757)"><tspan x="0" y="0">Taxes</tspan></text><text class="q" transform="translate(1704 804)"><tspan x="0" y="0">Total</tspan></text><line class="l" x2="157" transform="translate(1772 715)"/><line class="l" x2="157" transform="translate(1772 759)"/><line class="l" x2="157" transform="translate(1772 803)"/><text class="n" transform="translate(1070 436)"><tspan x="0" y="0">John Smith Jr.</tspan></text><text class="n" transform="translate(1070 448)"><tspan x="0" y="0">123 9th Ave</tspan></text><text class="n" transform="translate(1070 460)"><tspan x="0" y="0">New York, NY</tspan></text><text class="r" transform="translate(1069 414)"><tspan x="0" y="0">bill to:</tspan></text><text class="s" transform="translate(1072 514)"><tspan x="0" y="0">Description</tspan></text><text class="t" transform="translate(1150 691)"><tspan x="0" y="0">Subtotal</tspan></text><text class="t" transform="translate(1164 720)"><tspan x="0" y="0">Taxes</tspan></text><text class="u" transform="translate(1155 753)"><tspan x="0" y="0">Total</tspan></text><g transform="translate(1070.827 537.717)"><text class="v" transform="translate(0.173 11.283)"><tspan x="0" y="0">Web/Mobile Design</tspan></text></g><line class="l" x2="231" transform="translate(1058 527)"/><line class="l" x2="231" transform="translate(1058 558)"/><g transform="translate(1242.498 677)"><text class="b" transform="translate(-0.498 10)"><tspan x="0" y="0">1599.99</tspan></text></g><g transform="translate(1790 693.297)"><text class="o" transform="translate(0 12.703)"><tspan x="0" y="0">1599.99</tspan></text></g></g></svg>