<svg xmlns="http://www.w3.org/2000/svg" width="628.952" height="540.748" viewBox="0 0 628.952 540.748"><defs><style>.a{fill:#1a1c25;}.b{fill:#66fcf1;}.c{fill:#1f2833;}.d{fill:#9f616a;}.e{fill:#2f2e41;}.f{fill:#3f3d56;}</style></defs><rect class="a" width="532.264" height="313.477" transform="translate(0.325 0.432)"/><rect class="b" width="532.264" height="32.399"/><rect class="c" width="507.512" height="255.961" transform="translate(12.274 42.351)"/><circle class="c" cx="5.359" cy="5.359" r="5.359" transform="translate(45.079 10.757)"/><circle class="c" cx="5.359" cy="5.359" r="5.359" transform="translate(65.422 10.757)"/><circle class="c" cx="5.359" cy="5.359" r="5.359" transform="translate(24.682 10.757)"/><rect class="a" width="389.129" height="10.164" transform="translate(71.465 86.552)"/><rect class="a" width="138.743" height="10.164" transform="translate(196.659 111.96)"/><rect class="a" width="138.743" height="10.164" transform="translate(196.659 163.5)"/><rect class="a" width="138.743" height="10.164" transform="translate(196.659 189.899)"/><rect class="a" width="276.402" height="10.164" transform="translate(127.829 137.369)"/><rect class="b" width="73" height="18.049" transform="translate(387.595 236.062)"/><path class="d" d="M531.231,529.365H518.972l-5.833-47.288h18.1Z"/><path class="e" d="M510.215,525.861h23.644v14.887H495.328a14.887,14.887,0,0,1,14.887-14.887Z"/><path class="d" d="M577.231,529.365H564.972l-5.833-47.288h18.1Z"/><path class="e" d="M556.214,525.861h23.644v14.887h-38.53A14.887,14.887,0,0,1,556.214,525.861Z"/><path class="d" d="M861.258,568.152a10.743,10.743,0,0,1-2.062-16.343l-8.073-114.558,23.253,2.255.639,112.187a10.8,10.8,0,0,1-13.757,16.459Z" transform="translate(-285.524 -179.626)"/><path class="e" d="M816.176,685.167l-13.5-.643a4.5,4.5,0,0,1-4.286-4.463L797.452,543.5a4.5,4.5,0,0,1,5.146-4.485l53.994,7.838a4.474,4.474,0,0,1,3.853,4.42l6.944,126.534a4.5,4.5,0,0,1-4.5,4.534H848.34a4.479,4.479,0,0,1-4.445-3.8s-10.99-94.912-12.5-94.857c-1.517.028-10.537,97.52-10.537,97.52a4.517,4.517,0,0,1-4.469,3.966Q816.284,685.173,816.176,685.167Z" transform="translate(-285.524 -179.626)"/><path class="f" d="M856.387,475.744a4.482,4.482,0,0,1-1.859-3.4l-1.7-30.876a12.4,12.4,0,0,1,24.346-3.927l7.485,27.6a4.505,4.505,0,0,1-3.166,5.521L860.2,476.438A4.483,4.483,0,0,1,856.387,475.744Z" transform="translate(-285.524 -179.626)"/><circle class="d" cx="24.561" cy="24.561" r="24.561" transform="translate(526.414 173.615)"/><path class="d" d="M747.495,426.056a10.525,10.525,0,0,1,.239,1.64l42.957,24.782,10.441-6.011,11.131,14.572L789.927,476.96,740.919,438.3a10.5,10.5,0,1,1,6.576-12.241Z" transform="translate(-285.524 -179.626)"/><path class="f" d="M792.226,450.371a4.482,4.482,0,0,1,1.293-3.653l21.863-21.868a12.4,12.4,0,0,1,19.168,15.516l-15.57,23.992a4.505,4.505,0,0,1-6.224,1.325l-18.5-12.009a4.483,4.483,0,0,1-2.026-3.3Z" transform="translate(-285.524 -179.626)"/><path class="e" d="M853.88,397.233c-4.582,4.881-13.091,2.261-13.688-4.407a8.059,8.059,0,0,1,.01-1.556c.308-2.954,2.015-5.635,1.606-8.754a4.59,4.59,0,0,0-.84-2.149c-3.651-4.889-12.222,2.187-15.668-2.239-2.113-2.714.371-6.987-1.251-10.021-2.14-4-8.479-2.029-12.454-4.221-4.423-2.439-4.158-9.225-1.247-13.353,3.551-5.034,9.776-7.72,15.923-8.107s12.253,1.275,17.992,3.511c6.521,2.541,12.988,6.053,17,11.788,4.88,6.973,5.35,16.348,2.909,24.5C862.688,387.188,857.621,393.248,853.88,397.233Z" transform="translate(-285.524 -179.626)"/><path class="f" d="M913.476,720.188h-193a1,1,0,0,1,0-2h193a1,1,0,0,1,0,2Z" transform="translate(-285.524 -179.626)"/><path class="f" d="M861.015,418.769q-.64-.46-1.305-.9a32.361,32.361,0,0,0-7.6-3.724v-6.454h-19v5.988a33.32,33.32,0,0,0-24.163,27.686l-12.937,96.051a4.477,4.477,0,0,0,.931,3.4A4.419,4.419,0,0,0,800,542.487c4.483.447,13.78,2.185,25.68,8.8a38.126,38.126,0,0,0,18.706,4.774,45.089,45.089,0,0,0,15.226-2.711,4.467,4.467,0,0,0,2.918-4c.466-10.337,3.19-63.544,11.124-96a33.178,33.178,0,0,0-12.636-34.573Z" transform="translate(-285.524 -179.626)"/></svg>