<svg xmlns="http://www.w3.org/2000/svg" width="1894.583" height="512.563" viewBox="0 0 1894.583 512.563"><defs><style>.a{fill:#e6e6e6;}.b{fill:#fff;}.c{fill:#ccc;}.d{fill:#d4e8ff;}.e{fill:#e8e8e8;}</style></defs><g transform="translate(-10.331 -1197.857)"><g transform="translate(66.41 86.866)"><g transform="translate(-2034.523 -38.241) rotate(-11)"><path class="a" d="M21.781,173.357H134.748a16.26,16.26,0,0,0,12.843-6.224h0a16.463,16.463,0,0,0,3.083-14.121,285.646,285.646,0,0,1,0-132.667,16.468,16.468,0,0,0-3.084-14.12A16.259,16.259,0,0,0,134.748,0H21.781A16.467,16.467,0,0,0,5.576,13.82a478.78,478.78,0,0,0,0,145.716A16.467,16.467,0,0,0,21.781,173.357Z" transform="translate(1782.767 1548.161)"/><path class="b" d="M126.249,0a7.81,7.81,0,0,1,6.169,2.987,8.018,8.018,0,0,1,1.493,6.876,294.18,294.18,0,0,0,0,136.631,8.013,8.013,0,0,1-1.492,6.874h0a7.808,7.808,0,0,1-6.169,2.988H13.281a7.909,7.909,0,0,1-7.8-6.612,470.312,470.312,0,0,1,0-143.133A7.909,7.909,0,0,1,13.281,0Z" transform="translate(1790.829 1556.661)"/><path class="a" d="M8.5,20.321H67.78a8.509,8.509,0,0,0,8.5-8.5V8.5A8.509,8.509,0,0,0,67.78,0H8.5A8.509,8.509,0,0,0,0,8.5v3.321A8.509,8.509,0,0,0,8.5,20.321Z" transform="translate(1818.762 1577.213)"/><path class="a" d="M8.5,20.32H67.78a8.509,8.509,0,0,0,8.5-8.5V8.5A8.509,8.509,0,0,0,67.78,0H8.5A8.509,8.509,0,0,0,0,8.5v3.322A8.509,8.509,0,0,0,8.5,20.32Z" transform="translate(1818.762 1619.182)"/><path class="a" d="M8.5,20.321H67.78a8.509,8.509,0,0,0,8.5-8.5V8.5A8.509,8.509,0,0,0,67.78,0H8.5A8.509,8.509,0,0,0,0,8.5v3.322A8.509,8.509,0,0,0,8.5,20.321Z" transform="translate(1818.762 1662.739)"/><path class="a" d="M21.78,173.357H134.748a16.261,16.261,0,0,0,12.843-6.224h0a16.464,16.464,0,0,0,3.083-14.121,285.647,285.647,0,0,1,0-132.667,16.467,16.467,0,0,0-3.084-14.12A16.26,16.26,0,0,0,134.749,0H21.781A16.467,16.467,0,0,0,5.576,13.82a478.784,478.784,0,0,0,0,145.716,16.467,16.467,0,0,0,16.2,13.821Z" transform="translate(1688.064 1684.376)"/><path class="b" d="M126.249,0a7.81,7.81,0,0,1,6.169,2.987,8.017,8.017,0,0,1,1.493,6.876,294.183,294.183,0,0,0,0,136.631,8.012,8.012,0,0,1-1.492,6.874h0a7.808,7.808,0,0,1-6.169,2.988H13.281a7.909,7.909,0,0,1-7.8-6.612,470.31,470.31,0,0,1,0-143.133A7.909,7.909,0,0,1,13.281,0Z" transform="translate(1696.564 1692.928)"/><path class="a" d="M8.5,20.321H67.78a8.509,8.509,0,0,0,8.5-8.5V8.5A8.509,8.509,0,0,0,67.78,0H8.5A8.509,8.509,0,0,0,0,8.5v3.321a8.509,8.509,0,0,0,8.5,8.5Z" transform="translate(1725.996 1734.7)"/><path class="a" d="M8.5,20.32H67.781a8.509,8.509,0,0,0,8.5-8.5V8.5a8.509,8.509,0,0,0-8.5-8.5H8.5A8.509,8.509,0,0,0,0,8.5v3.322A8.509,8.509,0,0,0,8.5,20.32Z" transform="translate(1725.996 1777.22)"/><path class="c" d="M6.375,24.083h59.5a6.382,6.382,0,0,0,6.375-6.375V6.375A6.382,6.382,0,0,0,65.875,0H6.375A6.382,6.382,0,0,0,0,6.375V17.708A6.382,6.382,0,0,0,6.375,24.083Z" transform="translate(1823.036 1540.047)"/><path class="c" d="M6.375,24.083h59.5a6.383,6.383,0,0,0,6.375-6.375V6.375A6.382,6.382,0,0,0,65.875,0H6.375A6.382,6.382,0,0,0,0,6.375V17.708a6.382,6.382,0,0,0,6.375,6.375Z" transform="translate(1728.471 1678.102)"/><path class="a" d="M76.622,204.7l104.321-43.343a16.261,16.261,0,0,0,9.472-10.676h0a16.464,16.464,0,0,0-2.571-14.223,285.645,285.645,0,0,1-50.9-122.513,16.467,16.467,0,0,0-8.266-11.856,16.26,16.26,0,0,0-14.248-.82L10.107,44.607A16.467,16.467,0,0,0,.445,63.587,478.784,478.784,0,0,0,56.354,198.151,16.467,16.467,0,0,0,76.622,204.7Z" transform="translate(1854.297 1845.107)"/><path class="b" d="M109.2.608A7.809,7.809,0,0,1,116.042,1a8.017,8.017,0,0,1,4.017,5.777A294.181,294.181,0,0,0,172.481,132.95a8.013,8.013,0,0,1,1.26,6.921h0a7.808,7.808,0,0,1-4.55,5.126L64.869,188.341a7.908,7.908,0,0,1-9.743-3.111A470.319,470.319,0,0,1,.207,53.051a7.909,7.909,0,0,1,4.67-9.1Z" transform="translate(1863.866 1853.575)"/><path class="d" d="M13.035,42.161,67.778,19.416a8.509,8.509,0,0,0,4.588-11.11L71.092,5.238A8.509,8.509,0,0,0,59.981.65L5.238,23.395A8.509,8.509,0,0,0,.65,34.505l1.274,3.067a8.509,8.509,0,0,0,11.11,4.588Z" transform="translate(1912.471 1908.021)"/><path class="d" d="M13.035,42.161,67.779,19.416a8.509,8.509,0,0,0,4.588-11.11L71.092,5.238A8.509,8.509,0,0,0,59.982.65L5.238,23.4A8.509,8.509,0,0,0,.65,34.506l1.274,3.067A8.509,8.509,0,0,0,13.035,42.161Z" transform="translate(1923.929 1947.306)"/><path class="c" d="M10.622,45.564a6.361,6.361,0,0,0,2.39-.468l55.162-22.3a6.382,6.382,0,0,0,3.521-8.3L67.447,3.987a6.376,6.376,0,0,0-8.3-3.52L3.985,22.769a6.382,6.382,0,0,0-3.521,8.3L4.712,41.576A6.39,6.39,0,0,0,10.622,45.564Z" transform="translate(1898.727 1849.381)"/></g></g><g transform="matrix(0.995, 0.105, -0.105, 0.995, 40.452, -526.17)"><path class="a" d="M22.173,0h115A16.664,16.664,0,0,1,150.25,6.224h0a16.239,16.239,0,0,1,3.139,14.121,280.733,280.733,0,0,0,0,132.667,16.243,16.243,0,0,1-3.139,14.12,16.663,16.663,0,0,1-13.075,6.224h-115a16.676,16.676,0,0,1-16.5-13.82,470.41,470.41,0,0,1,0-145.716A16.676,16.676,0,0,1,22.173,0Z" transform="translate(1955.358 1721.518) rotate(180)"/><path class="b" d="M128.522,156.357a8,8,0,0,0,6.28-2.987,7.908,7.908,0,0,0,1.52-6.876,289.12,289.12,0,0,1,0-136.631A7.9,7.9,0,0,0,134.8,2.988h0A8,8,0,0,0,128.522,0h-115A8.011,8.011,0,0,0,5.576,6.612a462.09,462.09,0,0,0,0,143.133,8.01,8.01,0,0,0,7.945,6.612Z" transform="translate(1947.151 1713.018) rotate(180)"/><path class="a" d="M8.653,0H69a8.587,8.587,0,0,1,8.653,8.5v3.322A8.586,8.586,0,0,1,69,20.321H8.653A8.587,8.587,0,0,1,0,11.821V8.5A8.587,8.587,0,0,1,8.653,0Z" transform="translate(1918.715 1597.534) rotate(180)"/><path class="a" d="M8.653,0H69a8.586,8.586,0,0,1,8.653,8.5v3.321A8.586,8.586,0,0,1,69,20.32H8.653A8.587,8.587,0,0,1,0,11.821V8.5A8.587,8.587,0,0,1,8.653,0Z" transform="translate(1918.714 1639.503) rotate(180)"/><path class="a" d="M8.653,0H69a8.587,8.587,0,0,1,8.653,8.5v3.322A8.587,8.587,0,0,1,69,20.321H8.653A8.587,8.587,0,0,1,0,11.821V8.5A8.587,8.587,0,0,1,8.653,0Z" transform="translate(1918.715 1683.06) rotate(180)"/><path class="a" d="M22.173,0h115a16.664,16.664,0,0,1,13.074,6.224h0a16.239,16.239,0,0,1,3.139,14.121,280.733,280.733,0,0,0,0,132.667,16.243,16.243,0,0,1-3.139,14.12,16.663,16.663,0,0,1-13.075,6.224h-115a16.676,16.676,0,0,1-16.5-13.82,470.415,470.415,0,0,1,0-145.716A16.676,16.676,0,0,1,22.173,0Z" transform="translate(2051.767 1857.733) rotate(180)"/><path class="b" d="M128.522,156.357a8,8,0,0,0,6.28-2.987,7.908,7.908,0,0,0,1.52-6.876,289.122,289.122,0,0,1,0-136.631A7.9,7.9,0,0,0,134.8,2.988h0A8,8,0,0,0,128.522,0h-115A8.011,8.011,0,0,0,5.576,6.612a462.088,462.088,0,0,0,0,143.133,8.011,8.011,0,0,0,7.945,6.612Z" transform="translate(2043.113 1849.285) rotate(180)"/><path class="d" d="M8.653,0H69a8.587,8.587,0,0,1,8.653,8.5v3.322A8.587,8.587,0,0,1,69,20.321H8.653A8.587,8.587,0,0,1,0,11.821V8.5A8.586,8.586,0,0,1,8.653,0Z" transform="translate(2013.151 1755.021) rotate(180)"/><path class="d" d="M8.653,0H69a8.587,8.587,0,0,1,8.653,8.5v3.321A8.586,8.586,0,0,1,69,20.32H8.653A8.587,8.587,0,0,1,0,11.821V8.5A8.586,8.586,0,0,1,8.653,0Z" transform="translate(2013.151 1797.54) rotate(180)"/><path class="c" d="M6.49,0H67.061a6.44,6.44,0,0,1,6.49,6.375V17.708a6.44,6.44,0,0,1-6.49,6.375H6.49A6.44,6.44,0,0,1,0,17.708V6.375A6.44,6.44,0,0,1,6.49,0Z" transform="translate(1914.364 1564.13) rotate(180)"/><path class="c" d="M6.49,0H67.061a6.441,6.441,0,0,1,6.49,6.375V17.708a6.441,6.441,0,0,1-6.49,6.375H6.49A6.44,6.44,0,0,1,0,17.708V6.375A6.441,6.441,0,0,1,6.49,0Z" transform="translate(2010.632 1702.185) rotate(180)"/><path class="a" d="M78,1.245,184.2,44.588a16.361,16.361,0,0,1,9.643,10.676h0a16.229,16.229,0,0,1-2.617,14.223A282.944,282.944,0,0,0,139.408,192a16.475,16.475,0,0,1-8.414,11.856,16.818,16.818,0,0,1-14.505.82l-106.2-43.344a16.4,16.4,0,0,1-9.836-18.98A474.163,474.163,0,0,1,57.368,7.789,16.922,16.922,0,0,1,78,1.245Z" transform="translate(1882.54 2051.047) rotate(180)"/><path class="b" d="M111.165,188.341a8.089,8.089,0,0,0,11.055-6.168A291.4,291.4,0,0,1,175.587,56a7.9,7.9,0,0,0,1.283-6.921h0a7.856,7.856,0,0,0-4.632-5.126L66.037.607a8.128,8.128,0,0,0-9.919,3.111A465.78,465.78,0,0,0,.211,135.9,7.876,7.876,0,0,0,4.965,145Z" transform="translate(1872.799 2042.524) rotate(180)"/><path class="e" d="M13.269.65,69,23.395a8.456,8.456,0,0,1,4.671,11.11l-1.3,3.067a8.719,8.719,0,0,1-11.311,4.588L5.332,19.416A8.456,8.456,0,0,1,.662,8.305l1.3-3.067A8.718,8.718,0,0,1,13.269.65Z" transform="translate(1823.318 1950.832) rotate(180)"/><path class="e" d="M13.27.65,69,23.4a8.456,8.456,0,0,1,4.671,11.11l-1.3,3.067a8.718,8.718,0,0,1-11.31,4.588L5.332,19.415A8.456,8.456,0,0,1,.662,8.305l1.3-3.067A8.719,8.719,0,0,1,13.27.65Z" transform="translate(1811.654 1990.117) rotate(180)"/><path class="c" d="M10.813,0a6.577,6.577,0,0,1,2.433.468L69.4,22.771a6.345,6.345,0,0,1,3.584,8.3L68.662,41.577a6.531,6.531,0,0,1-8.449,3.52L4.057,22.8A6.345,6.345,0,0,1,.472,14.5L4.8,3.989A6.506,6.506,0,0,1,10.813,0Z" transform="translate(1837.31 1894.945) rotate(180)"/></g></g></svg>