<svg xmlns="http://www.w3.org/2000/svg" xmlns:xlink="http://www.w3.org/1999/xlink" width="1979.087" height="512.563" viewBox="0 0 1979.087 512.563"><defs><style>.a{fill:#fff;stroke:#707070;}.b{fill:#404040;}.c{fill:#212121;}.d{fill:#929292;}.e{fill:#ccc;}.f{stroke:none;}.g,.h{fill:none;}.h{clip-path:url(#b);}</style><clipPath id="b"><use xlink:href="#a"/></clipPath></defs><g transform="translate(32.549 -1208.437)"><g transform="translate(-395.375 -18.891)"><g class="a" transform="translate(2244 1320.471)"><rect class="f" width="1" height="6"/><rect class="g" x="0.5" y="0.5" height="5"/></g><path class="b" d="M22.173,0h115A16.664,16.664,0,0,1,150.25,6.224h0a16.239,16.239,0,0,1,3.139,14.121,280.733,280.733,0,0,0,0,132.667,16.243,16.243,0,0,1-3.139,14.12,16.663,16.663,0,0,1-13.075,6.224h-115a16.676,16.676,0,0,1-16.5-13.82,470.41,470.41,0,0,1,0-145.716A16.676,16.676,0,0,1,22.173,0Z" transform="matrix(-0.995, -0.105, 0.105, -0.995, 2242.15, 1419.779)"/><path class="c" d="M128.522,156.357a8,8,0,0,0,6.28-2.987,7.908,7.908,0,0,0,1.52-6.876,289.12,289.12,0,0,1,0-136.631A7.9,7.9,0,0,0,134.8,2.988h0A8,8,0,0,0,128.522,0h-115A8.011,8.011,0,0,0,5.576,6.612a462.09,462.09,0,0,0,0,143.133,8.01,8.01,0,0,0,7.945,6.612Z" transform="matrix(-0.995, -0.105, 0.105, -0.995, 2234.877, 1410.467)"/><path class="d" d="M8.653,0H69a8.587,8.587,0,0,1,8.653,8.5v3.322A8.586,8.586,0,0,1,69,20.321H8.653A8.587,8.587,0,0,1,0,11.821V8.5A8.587,8.587,0,0,1,8.653,0Z" transform="matrix(-0.995, -0.105, 0.105, -0.995, 2218.668, 1292.644)"/><path class="d" d="M8.653,0H69a8.586,8.586,0,0,1,8.653,8.5v3.321A8.586,8.586,0,0,1,69,20.32H8.653A8.587,8.587,0,0,1,0,11.821V8.5A8.587,8.587,0,0,1,8.653,0Z" transform="matrix(-0.995, -0.105, 0.105, -0.995, 2214.281, 1334.382)"/><path class="d" d="M8.653,0H69a8.587,8.587,0,0,1,8.653,8.5v3.322A8.587,8.587,0,0,1,69,20.321H8.653A8.587,8.587,0,0,1,0,11.821V8.5A8.587,8.587,0,0,1,8.653,0Z" transform="matrix(-0.995, -0.105, 0.105, -0.995, 2209.728, 1377.701)"/><path class="b" d="M22.173,0h115a16.664,16.664,0,0,1,13.074,6.224h0a16.239,16.239,0,0,1,3.139,14.121,280.733,280.733,0,0,0,0,132.667,16.243,16.243,0,0,1-3.139,14.12,16.663,16.663,0,0,1-13.075,6.224h-115a16.676,16.676,0,0,1-16.5-13.82,470.415,470.415,0,0,1,0-145.716A16.676,16.676,0,0,1,22.173,0Z" transform="matrix(-0.995, -0.105, 0.105, -0.995, 2323.793, 1565.325)"/><path class="c" d="M128.522,156.357a8,8,0,0,0,6.28-2.987,7.908,7.908,0,0,0,1.52-6.876,289.122,289.122,0,0,1,0-136.631A7.9,7.9,0,0,0,134.8,2.988h0A8,8,0,0,0,128.522,0h-115A8.011,8.011,0,0,0,5.576,6.612a462.088,462.088,0,0,0,0,143.133,8.011,8.011,0,0,0,7.945,6.612Z" transform="matrix(-0.995, -0.105, 0.105, -0.995, 2316.07, 1556.018)"/><path class="d" d="M8.653,0H69a8.587,8.587,0,0,1,8.653,8.5v3.322A8.587,8.587,0,0,1,69,20.321H8.653A8.587,8.587,0,0,1,0,11.821V8.5A8.586,8.586,0,0,1,8.653,0Z" transform="matrix(-0.995, -0.105, 0.105, -0.995, 2296.125, 1459.139)"/><path class="d" d="M8.653,0H69a8.587,8.587,0,0,1,8.653,8.5v3.321A8.586,8.586,0,0,1,69,20.32H8.653A8.587,8.587,0,0,1,0,11.821V8.5A8.586,8.586,0,0,1,8.653,0Z" transform="matrix(-0.995, -0.105, 0.105, -0.995, 2291.681, 1501.425)"/><path class="e" d="M6.49,0H67.061a6.44,6.44,0,0,1,6.49,6.375V17.708a6.44,6.44,0,0,1-6.49,6.375H6.49A6.44,6.44,0,0,1,0,17.708V6.375A6.44,6.44,0,0,1,6.49,0Z" transform="matrix(-0.995, -0.105, 0.105, -0.995, 2217.833, 1258.968)"/><path class="e" d="M6.49,0H67.061a6.441,6.441,0,0,1,6.49,6.375V17.708a6.441,6.441,0,0,1-6.49,6.375H6.49A6.44,6.44,0,0,1,0,17.708V6.375A6.441,6.441,0,0,1,6.49,0Z" transform="matrix(-0.995, -0.105, 0.105, -0.995, 2299.143, 1406.329)"/><path class="b" d="M78,1.245,184.2,44.588a16.361,16.361,0,0,1,9.643,10.676h0a16.229,16.229,0,0,1-2.617,14.223A282.944,282.944,0,0,0,139.408,192a16.475,16.475,0,0,1-8.414,11.856,16.818,16.818,0,0,1-14.505.82l-106.2-43.344a16.4,16.4,0,0,1-9.836-18.98A474.163,474.163,0,0,1,57.368,7.789,16.922,16.922,0,0,1,78,1.245Z" transform="matrix(-0.995, -0.105, 0.105, -0.995, 2135.286, 1739.891)"/><path class="c" d="M111.165,188.341a8.089,8.089,0,0,0,11.055-6.168A291.4,291.4,0,0,1,175.587,56a7.9,7.9,0,0,0,1.283-6.921h0a7.856,7.856,0,0,0-4.632-5.126L66.037.607a8.128,8.128,0,0,0-9.919,3.111A465.78,465.78,0,0,0,.211,135.9,7.876,7.876,0,0,0,4.965,145Z" transform="matrix(-0.995, -0.105, 0.105, -0.995, 2126.489, 1730.396)"/><path class="d" d="M13.269.65,69,23.395a8.456,8.456,0,0,1,4.671,11.11l-1.3,3.067a8.719,8.719,0,0,1-11.311,4.588L5.332,19.416A8.456,8.456,0,0,1,.662,8.305l1.3-3.067A8.718,8.718,0,0,1,13.269.65Z" transform="matrix(-0.995, -0.105, 0.105, -0.995, 2086.864, 1634.034)"/><path class="d" d="M13.27.65,69,23.4a8.456,8.456,0,0,1,4.671,11.11l-1.3,3.067a8.718,8.718,0,0,1-11.31,4.588L5.332,19.415A8.456,8.456,0,0,1,.662,8.305l1.3-3.067A8.719,8.719,0,0,1,13.27.65Z" transform="matrix(-0.995, -0.105, 0.105, -0.995, 2071.157, 1671.885)"/><path class="e" d="M10.813,0a6.577,6.577,0,0,1,2.433.468L69.4,22.771a6.345,6.345,0,0,1,3.584,8.3L68.662,41.577a6.531,6.531,0,0,1-8.449,3.52L4.057,22.8A6.345,6.345,0,0,1,.472,14.5L4.8,3.989A6.506,6.506,0,0,1,10.813,0Z" transform="matrix(-0.995, -0.105, 0.105, -0.995, 2106.621, 1579.917)"/></g><g transform="translate(-1974.025 -18.525)"><g class="a" transform="translate(2034.87 1320.471)"><rect id="a" class="f" width="0.959" height="6"/><path class="h" d="M0,0.5h0.9592421650886536M0.5,0v6M0.9592421650886536,5.5h-0.9592421650886536M0.45924216508865356,6v-6"/></g><path class="b" d="M21.275,174.273l110.366-.487a15.909,15.909,0,0,0,12.574-6.277h0a16.834,16.834,0,0,0,3.072-14.128,291.954,291.954,0,0,1,.563-132.608,16.672,16.672,0,0,0-2.953-14.1A15.606,15.606,0,0,0,132.376.506L22.011.994A16.379,16.379,0,0,0,6.12,14.877,489.524,489.524,0,0,0,5.5,160.528,16.029,16.029,0,0,0,21.275,174.273Z" transform="matrix(0.995, -0.105, 0.105, 0.995, 2019.38, 1246.367)"/><path class="c" d="M124,.474a7.5,7.5,0,0,1,6.014,2.959,8.118,8.118,0,0,1,1.429,6.866,300.676,300.676,0,0,0-.58,136.57,8.193,8.193,0,0,1-1.486,6.878h0a7.64,7.64,0,0,1-6.039,3.013l-110.366.487a7.7,7.7,0,0,1-7.6-6.575A480.866,480.866,0,0,1,5.984,7.6,7.865,7.865,0,0,1,13.636.961Z" transform="matrix(0.995, -0.105, 0.105, 0.995, 2028.139, 1254.023)"/><path class="d" d="M8.317,20.821l57.915-.256a8.5,8.5,0,0,0,8.34-8.533l.014-3.32A8.323,8.323,0,0,0,66.318.253L8.4.509A8.5,8.5,0,0,0,.063,9.042l-.014,3.32A8.323,8.323,0,0,0,8.317,20.821Z" transform="matrix(0.995, -0.105, 0.105, 0.995, 2057.936, 1271.902)"/><path class="d" d="M8.317,20.82l57.915-.256a8.5,8.5,0,0,0,8.34-8.533l.014-3.32A8.323,8.323,0,0,0,66.318.253L8.4.509A8.5,8.5,0,0,0,.063,9.042l-.014,3.32A8.323,8.323,0,0,0,8.317,20.82Z" transform="matrix(0.995, -0.105, 0.105, 0.995, 2062.144, 1313.641)"/><path class="d" d="M8.317,20.821l57.915-.256a8.5,8.5,0,0,0,8.34-8.533l.014-3.32A8.323,8.323,0,0,0,66.318.253L8.4.509A8.5,8.5,0,0,0,.063,9.042l-.014,3.32A8.324,8.324,0,0,0,8.317,20.821Z" transform="matrix(0.995, -0.105, 0.105, 0.995, 2066.511, 1356.959)"/><path class="b" d="M21.275,174.273l110.366-.487a15.91,15.91,0,0,0,12.574-6.277h0a16.834,16.834,0,0,0,3.072-14.128,291.954,291.954,0,0,1,.563-132.608,16.672,16.672,0,0,0-2.953-14.1A15.606,15.606,0,0,0,132.376.506L22.011.994A16.379,16.379,0,0,0,6.12,14.877,489.529,489.529,0,0,0,5.5,160.529a16.029,16.029,0,0,0,15.773,13.745Z" transform="matrix(0.995, -0.105, 0.105, 0.995, 1941.066, 1391.913)"/><path class="c" d="M124,.474a7.5,7.5,0,0,1,6.014,2.959,8.118,8.118,0,0,1,1.429,6.866,300.679,300.679,0,0,0-.58,136.57,8.192,8.192,0,0,1-1.486,6.878h0a7.639,7.639,0,0,1-6.039,3.013l-110.366.487a7.7,7.7,0,0,1-7.6-6.575A480.864,480.864,0,0,1,5.984,7.6,7.865,7.865,0,0,1,13.636.961Z" transform="matrix(0.995, -0.105, 0.105, 0.995, 1950.255, 1399.574)"/><path class="d" d="M8.317,20.821l57.915-.256a8.5,8.5,0,0,0,8.34-8.533l.014-3.32A8.323,8.323,0,0,0,66.318.253L8.4.509A8.5,8.5,0,0,0,.063,9.042l-.014,3.32a8.323,8.323,0,0,0,8.268,8.46Z" transform="matrix(0.995, -0.105, 0.105, 0.995, 1983.635, 1438.397)"/><path class="d" d="M8.317,20.82l57.915-.256a8.5,8.5,0,0,0,8.34-8.533l.014-3.32A8.323,8.323,0,0,0,66.318.253L8.4.509A8.5,8.5,0,0,0,.063,9.042l-.014,3.32A8.323,8.323,0,0,0,8.317,20.82Z" transform="matrix(0.995, -0.105, 0.105, 0.995, 1987.898, 1480.684)"/><path class="e" d="M6.274,24.576l58.13-.257a6.375,6.375,0,0,0,6.255-6.4l.048-11.328a6.243,6.243,0,0,0-6.2-6.345L6.376.5A6.375,6.375,0,0,0,.12,6.9L.072,18.231A6.243,6.243,0,0,0,6.274,24.576Z" transform="matrix(0.995, -0.105, 0.105, 0.995, 2058.313, 1234.504)"/><path class="e" d="M6.274,24.576l58.13-.257a6.375,6.375,0,0,0,6.255-6.4l.048-11.328a6.243,6.243,0,0,0-6.2-6.345L6.376.5A6.375,6.375,0,0,0,.12,6.9L.072,18.231a6.243,6.243,0,0,0,6.2,6.345Z" transform="matrix(0.995, -0.105, 0.105, 0.995, 1980.317, 1381.866)"/><path class="b" d="M74.484,205.247l102.1-43.774a16.33,16.33,0,0,0,9.3-10.712h0a16.7,16.7,0,0,0-2.451-14.206,286.559,286.559,0,0,1-49.21-122.239A16.274,16.274,0,0,0,126.2,2.5a15.545,15.545,0,0,0-13.917-.758L10.18,45.517A16.7,16.7,0,0,0,.659,64.531,480.394,480.394,0,0,0,54.711,198.793,15.8,15.8,0,0,0,74.484,205.247Z" transform="matrix(0.995, -0.105, 0.105, 0.995, 2118.869, 1534.163)"/><path class="c" d="M107.105,1.041a7.466,7.466,0,0,1,6.684.362,7.924,7.924,0,0,1,3.9,5.757,295.123,295.123,0,0,0,50.681,125.892,8.126,8.126,0,0,1,1.2,6.912h0a7.841,7.841,0,0,1-4.467,5.143L63,188.882a7.586,7.586,0,0,1-9.506-3.068A471.9,471.9,0,0,1,.4,53.931,8.02,8.02,0,0,1,5,44.815Z" transform="matrix(0.995, -0.105, 0.105, 0.995, 2129.089, 1541.627)"/><path class="d" d="M12.814,42.6,66.393,19.624A8.64,8.64,0,0,0,70.923,8.5l-1.232-3.06A8.187,8.187,0,0,0,58.855.9L5.276,23.872A8.64,8.64,0,0,0,.747,35l1.232,3.061A8.186,8.186,0,0,0,12.814,42.6Z" transform="matrix(0.995, -0.105, 0.105, 0.995, 2181.957, 1590.978)"/><path class="d" d="M12.815,42.6,66.394,19.624A8.64,8.64,0,0,0,70.924,8.5l-1.232-3.06A8.186,8.186,0,0,0,58.856.9L5.277,23.872A8.639,8.639,0,0,0,.747,35l1.232,3.061A8.187,8.187,0,0,0,12.815,42.6Z" transform="matrix(0.995, -0.105, 0.105, 0.995, 2197.024, 1628.829)"/><path class="e" d="M10.421,45.994a6.123,6.123,0,0,0,2.337-.478l53.986-22.53a6.479,6.479,0,0,0,3.475-8.311L66.114,4.19A6.136,6.136,0,0,0,58.02.707L4.034,23.237A6.479,6.479,0,0,0,.559,31.548L4.665,42.033A6.179,6.179,0,0,0,10.421,45.994Z" transform="matrix(0.995, -0.105, 0.105, 0.995, 2162.752, 1534.134)"/></g></g></svg>